/* XPM */
static char * robot_xpm[] = {
"16 16 10 1",
" 	c None",
".	c #FFFFFF",
"+	c #404040",
"@	c #C0C0C0",
"#	c #000000",
"$	c #606060",
"%	c #202020",
"&	c #A0A0A0",
"*	c #FF2020",
"=	c #808080",
"..++++++++++++..",
"..+@@@@@@@@@@+..",
".#+@@@@@@@@@@+#.",
"#$+@@@@@@@@@@+$#",
"##+@@@@@@@@@@+##",
"#$++++++++++++$#",
"##%&&$$&&$$&&%##",
"#$%&+%%++%%+&%$#",
"##%$%**%%**%$%##",
"#$%$%**%%**%$%$#",
"##%=+%%++%%+=%##",
"#$#$$$$$$$$$$#$#",
"###++++++++++###",
"#$############$#",
"###..........###",
".#............#."};
